<?xml version="1.0" encoding="UTF-8" standalone="no"?>
<!-- Created with Inkscape (http://www.inkscape.org/) -->

<svg
   xmlns:dc="http://purl.org/dc/elements/1.1/"
   xmlns:cc="http://creativecommons.org/ns#"
   xmlns:rdf="http://www.w3.org/1999/02/22-rdf-syntax-ns#"
   xmlns:svg="http://www.w3.org/2000/svg"
   xmlns="http://www.w3.org/2000/svg"
   xmlns:sodipodi="http://sodipodi.sourceforge.net/DTD/sodipodi-0.dtd"
   xmlns:inkscape="http://www.inkscape.org/namespaces/inkscape"
   width="281"
   height="50"
   id="svg2991"
   version="1.1"
   inkscape:version="0.48.4 r9939"
   sodipodi:docname="logo.svg">
  <defs
     id="defs2993">
    <linearGradient
       id="linearGradient4733-9-6-3-1-2-8-9-8-1-36-0-0-6-2-8">
      <stop
         style="stop-color:#000080;stop-opacity:1;"
         offset="0"
         id="stop4735-4-2-9-6-6-5-3-9-2-5-5-2-3-2-6" />
      <stop
         id="stop4743-4-3-0-24-5-3-5-2-7-6-7-4-26-1-4"
         offset="1"
         style="stop-color:#d7d7ff;stop-opacity:1;" />
    </linearGradient>
    <linearGradient
       id="linearGradient4733-9-6-3-1-2-8-9-8-1-36-0-0-6-2">
      <stop
         style="stop-color:#000080;stop-opacity:1;"
         offset="0"
         id="stop4735-4-2-9-6-6-5-3-9-2-5-5-2-3-2" />
      <stop
         id="stop4743-4-3-0-24-5-3-5-2-7-6-7-4-26-1"
         offset="1"
         style="stop-color:#d7d7ff;stop-opacity:1;" />
    </linearGradient>
  </defs>
  <sodipodi:namedview
     id="base"
     pagecolor="#ffffff"
     bordercolor="#666666"
     borderopacity="1.0"
     inkscape:pageopacity="0.0"
     inkscape:pageshadow="2"
     inkscape:zoom="2.5870239"
     inkscape:cx="38.926181"
     inkscape:cy="8.0026167"
     inkscape:current-layer="layer1"
     showgrid="true"
     inkscape:grid-bbox="true"
     inkscape:document-units="px"
     inkscape:window-width="1323"
     inkscape:window-height="744"
     inkscape:window-x="43"
     inkscape:window-y="24"
     inkscape:window-maximized="1" />
  <metadata
     id="metadata2996">
    <rdf:RDF>
      <cc:Work
         rdf:about="">
        <dc:format>image/svg+xml</dc:format>
        <dc:type
           rdf:resource="http://purl.org/dc/dcmitype/StillImage" />
        <dc:title></dc:title>
      </cc:Work>
    </rdf:RDF>
  </metadata>
  <g
     id="layer1"
     inkscape:label="Layer 1"
     inkscape:groupmode="layer"
     transform="translate(0,34)">
    <path
       style="fill:{{color2}};fill-opacity:1;stroke:none"
       d="m 104.30745,-20.229597 c 5.9086,0.04349 11.4286,15.7366901 12.8808,19.1378431 -6.3087,-18.4280981 -11.0935,-24.6360101 -13.8173,-24.5713351 -9.997702,0.01081 -19.876502,18.6985471 -20.333202,31.5436221 5.1089,-0.08882 5.042,0.05194 9.8421,-0.02909 -0.8802,-16.2623431 3.026297,-25.6423281 11.427602,-26.0810371 z"
       id="path3003-0-3-4-4-5-6-4-1-3-0-8-2-1-7-2-3-7-3-5-8-57-3-5-4-9"
       inkscape:connector-curvature="0"
       sodipodi:nodetypes="cccccc" />
    <path
       style="fill:{{color1}};fill-opacity:1;stroke:none"
       d="m 103.13235,-22.725191 c 10.5674,0 16.0443,30.4656591 16.4486,37.504032 l 4.2952,-0.122584 c 0,0 -11.71,-47.68589 -20.7673,-47.68589 -9.162502,0 -20.062302,14.336169 -20.024402,38.8419231 0,0 6.3338,-28.7489491 20.047902,-28.5374811 z"
       id="path3003-0-4-17-8-1-9-6-6-8-7-4-2-2"
       inkscape:connector-curvature="0"
       sodipodi:nodetypes="cccscc" />
    <g
       transform="matrix(0.83844801,0,0,0.75759956,-22.655552,-146.04655)"
       style="font-size:40px;font-style:normal;font-variant:normal;font-weight:normal;font-stretch:normal;line-height:125%;letter-spacing:0px;word-spacing:0px;fill:{{color1}};fill-opacity:1;stroke:none;font-family:Ubuntu;-inkscape-font-specification:Ubuntu"
       id="flowRoot2995-8-8-5-6-2-6-4-7-5-6-2-8-1-3-8-0-8-1-7-8-4-3-1-3-00">
      <path
         d="m 182.15875,200.14451 c -2.29334,-0.0533 -3.92001,-0.54667 -4.88,-1.48 -0.96,-0.93334 -1.44,-2.38667 -1.44,-4.36 l 0,-24.96 3.72,-0.64 0,25 c -1e-5,0.61333 0.0533,1.12 0.16,1.52 0.10666,0.4 0.27999,0.72 0.52,0.96 0.23999,0.24 0.55999,0.42667 0.96,0.56 0.39999,0.10667 0.89332,0.2 1.48,0.28 l -0.52,3.12"
         style="fill:{{color1}}"
         id="path3146" />
      <path
         d="m 190.33625,178.94451 7.88,0 0,3.12 -7.88,0 0,9.6 c -1e-5,1.04 0.08,1.90667 0.24,2.6 0.15999,0.66667 0.39999,1.2 0.72,1.6 0.31999,0.37333 0.71999,0.64 1.2,0.8 0.47999,0.16 1.03999,0.24 1.68,0.24 1.11999,0 2.01332,-0.12 2.68,-0.36 0.69332,-0.26667 1.17332,-0.45333 1.44,-0.56 l 0.72,3.08 c -0.37335,0.18666 -1.02668,0.41333 -1.96,0.68 -0.93335,0.29333 -2.00001,0.44 -3.2,0.44 -1.41334,0 -2.58667,-0.17334 -3.52,-0.52 -0.90667,-0.37334 -1.64001,-0.92 -2.2,-1.64 -0.56,-0.72 -0.96,-1.6 -1.2,-2.64 -0.21334,-1.06667 -0.32,-2.29333 -0.32,-3.68 l 0,-18.56 3.72,-0.64 0,6.44"
         style="fill:{{color1}}"
         id="path3148" />
      <path
         d="m 201.39937,189.38451 c 0,-1.83999 0.26667,-3.43999 0.8,-4.8 0.53333,-1.38665 1.24,-2.53332 2.12,-3.44 0.88,-0.90665 1.89333,-1.58665 3.04,-2.04 1.14666,-0.45332 2.31999,-0.67998 3.52,-0.68 2.79999,2e-5 4.94666,0.88002 6.44,2.64 1.49332,1.73335 2.23998,4.38668 2.24,7.96 -2e-5,0.16001 -2e-5,0.37334 0,0.64 -2e-5,0.24001 -0.0134,0.46667 -0.04,0.68 l -14.24,0 c 0.16,2.16 0.78666,3.8 1.88,4.92 1.09333,1.12 2.79999,1.68 5.12,1.68 1.30666,0 2.39999,-0.10667 3.28,-0.32 0.90665,-0.24 1.58665,-0.46667 2.04,-0.68 l 0.52,3.12 c -0.45335,0.24 -1.25335,0.49333 -2.39999,0.76 -1.12002,0.26666 -2.40002,0.4 -3.84001,0.4 -1.81334,0 -3.38667,-0.26667 -4.72,-0.8 -1.30667,-0.56 -2.38667,-1.32 -3.24,-2.28 -0.85333,-0.96 -1.49333,-2.09333 -1.92,-3.4 -0.4,-1.33333 -0.6,-2.78666 -0.6,-4.36 m 14.28,-2.04 c 0.0267,-1.67999 -0.40001,-3.05332 -1.28,-4.12 -0.85334,-1.09332 -2.04001,-1.63999 -3.56,-1.64 -0.85334,1e-5 -1.61334,0.17335 -2.28,0.52 -0.64,0.32001 -1.18667,0.74668 -1.64,1.28 -0.45334,0.53335 -0.81334,1.14668 -1.08,1.84 -0.24,0.69334 -0.4,1.40001 -0.48,2.12 l 10.32,0"
         style="fill:{{color1}}"
         id="path3150" />
      <path
         d="m 232.58312,178.50451 c 0.31999,2e-5 0.67999,0.0267 1.08,0.08 0.42666,0.0267 0.83999,0.08 1.24,0.16 0.39999,0.0533 0.75999,0.12002 1.08,0.2 0.34666,0.0533 0.59999,0.10668 0.76,0.16 l -0.64,3.24 c -0.29334,-0.10665 -0.78668,-0.22665 -1.48,-0.36 -0.66667,-0.15999 -1.53334,-0.23999 -2.6,-0.24 -0.69334,1e-5 -1.38667,0.08 -2.08,0.24 -0.66667,0.13335 -1.10667,0.22668 -1.32,0.28 l 0,17.48 -3.72,0 0,-19.92 c 0.88,-0.31998 1.97333,-0.61332 3.28,-0.88 1.30666,-0.29332 2.77333,-0.43998 4.4,-0.44"
         style="fill:{{color1}}"
         id="path3152" />
      <path
         d="m 240.37187,179.54451 c 0.85333,-0.21332 1.98667,-0.43998 3.4,-0.68 1.41333,-0.23998 3.04,-0.35998 4.88,-0.36 1.65333,2e-5 3.02666,0.24002 4.12,0.72 1.09332,0.45335 1.95999,1.10668 2.6,1.96 0.66665,0.82668 1.13332,1.82668 1.40001,3 0.26664,1.17334 0.39997,2.46668 0.39999,3.88 l 0,11.68 -3.72,0 0,-10.88 c -1e-5,-1.27999 -0.0933,-2.37332 -0.28,-3.28 -0.16001,-0.90666 -0.44001,-1.63999 -0.84,-2.2 -0.40001,-0.55999 -0.93334,-0.95999 -1.6,-1.2 -0.66667,-0.26665 -1.49334,-0.39999 -2.48,-0.4 -0.40001,10e-6 -0.81334,0.0133 -1.24,0.04 -0.42667,0.0267 -0.84,0.0667 -1.24,0.12 -0.37334,0.0267 -0.72,0.0667 -1.04,0.12 -0.29334,0.0533 -0.50667,0.0933 -0.64,0.12 l 0,17.56 -3.72,0 0,-20.2"
         style="fill:{{color1}}"
         id="path3154" />
      <path
         d="m 270.38062,197.06451 c 0.87999,0 1.65333,-0.0133 2.32,-0.04 0.69333,-0.0533 1.26666,-0.13333 1.72,-0.24 l 0,-6.2 c -0.26668,-0.13333 -0.70668,-0.23999 -1.32,-0.32 -0.58667,-0.10666 -1.30667,-0.15999 -2.16,-0.16 -0.56001,1e-5 -1.16,0.04 -1.8,0.12 -0.61334,0.08 -1.18667,0.25334 -1.72,0.52 -0.50667,0.24 -0.93333,0.58667 -1.28,1.04 -0.34667,0.42667 -0.52,1 -0.51999,1.72 -1e-5,1.33333 0.42666,2.26667 1.27999,2.8 0.85333,0.50667 2.01333,0.76 3.48,0.76 m -0.31999,-18.64 c 1.49332,2e-5 2.74665,0.20002 3.75999,0.6 1.03999,0.37335 1.86666,0.92002 2.48001,1.64 0.63998,0.69335 1.09331,1.53335 1.35999,2.52 0.26665,0.96001 0.39999,2.02668 0.40001,3.2 l 0,13 c -0.32002,0.0533 -0.77336,0.13333 -1.36001,0.24 -0.56001,0.08 -1.20001,0.16 -1.92,0.24 -0.72001,0.08 -1.50667,0.14666 -2.36,0.2 -0.82667,0.08 -1.65334,0.12 -2.48,0.12 -1.17334,0 -2.25334,-0.12 -3.24,-0.36 -0.98667,-0.24 -1.84,-0.61334 -2.56,-1.12 -0.72,-0.53334 -1.28,-1.22667 -1.68,-2.08 -0.4,-0.85333 -0.6,-1.88 -0.59999,-3.08 -1e-5,-1.14666 0.22666,-2.13333 0.67999,-2.96 0.48,-0.82666 1.12,-1.49333 1.92,-2 0.8,-0.50666 1.73333,-0.87999 2.8,-1.12 1.06666,-0.23999 2.18666,-0.35999 3.36001,-0.36 0.37332,1e-5 0.75998,0.0267 1.15999,0.08 0.39999,0.0267 0.77333,0.08 1.12,0.16 0.37333,0.0533 0.69332,0.10668 0.96001,0.16 0.26665,0.0533 0.45331,0.0933 0.55999,0.12 l 0,-1.04 c -10e-6,-0.61332 -0.0667,-1.21332 -0.2,-1.8 -0.13334,-0.61332 -0.37334,-1.14665 -0.71999,-1.6 -0.34668,-0.47999 -0.82668,-0.85332 -1.44,-1.12 -0.58668,-0.29332 -1.36002,-0.43999 -2.32,-0.44 -1.22668,1e-5 -2.30668,0.0934 -3.24,0.28 -0.90668,0.16001 -1.58668,0.33335 -2.04001,0.52 l -0.44,-3.08 c 0.48,-0.21332 1.28,-0.41332 2.4,-0.6 1.12,-0.21332 2.33333,-0.31998 3.64001,-0.32"
         style="fill:{{color1}}"
         id="path3156" />
      <path
         d="m 287.68,178.94451 7.88,0 0,3.12 -7.88,0 0,9.6 c -1e-5,1.04 0.08,1.90667 0.24,2.6 0.15999,0.66667 0.39999,1.2 0.72,1.6 0.31999,0.37333 0.71999,0.64 1.2,0.8 0.47999,0.16 1.03999,0.24 1.68,0.24 1.11999,0 2.01332,-0.12 2.68,-0.36 0.69332,-0.26667 1.17332,-0.45333 1.44,-0.56 l 0.72,3.08 c -0.37335,0.18666 -1.02668,0.41333 -1.96,0.68 -0.93335,0.29333 -2.00001,0.44 -3.2,0.44 -1.41334,0 -2.58667,-0.17334 -3.52,-0.52 -0.90667,-0.37334 -1.64001,-0.92 -2.2,-1.64 -0.56,-0.72 -0.96,-1.6 -1.2,-2.64 -0.21334,-1.06667 -0.32,-2.29333 -0.32,-3.68 l 0,-18.56 3.72,-0.64 0,6.44"
         style="fill:{{color1}}"
         id="path3158" />
      <path
         d="m 304.01375,199.74451 -3.72,0 0,-20.8 3.72,0 0,20.8 m -1.88,-24.56 c -0.66667,2e-5 -1.24,-0.21331 -1.72,-0.64 -0.45334,-0.45331 -0.68,-1.05331 -0.68,-1.8 0,-0.74664 0.22666,-1.33331 0.68,-1.76 0.48,-0.45331 1.05333,-0.67997 1.72,-0.68 0.66666,3e-5 1.22666,0.22669 1.68,0.68 0.47999,0.42669 0.71999,1.01336 0.72,1.76 -10e-6,0.74669 -0.24001,1.34669 -0.72,1.8 -0.45334,0.42669 -1.01334,0.64002 -1.68,0.64"
         style="fill:{{color1}}"
         id="path3160" />
      <path
         d="m 326.69,178.94451 c -1.04002,3.89335 -2.26668,7.62668 -3.68,11.2 -1.38668,3.57334 -2.73335,6.77333 -4.04,9.6 l -3.36,0 c -1.30667,-2.82667 -2.66667,-6.02666 -4.08,-9.6 -1.38667,-3.57332 -2.6,-7.30665 -3.64,-11.2 l 4,0 c 0.32,1.30668 0.69333,2.70668 1.12,4.2 0.45333,1.46668 0.91999,2.93334 1.4,4.4 0.50666,1.44001 1.01333,2.84001 1.52,4.2 0.50666,1.36 0.98666,2.57333 1.44,3.64 0.45332,-1.06667 0.93332,-2.28 1.44,-3.64 0.50665,-1.35999 0.99999,-2.75999 1.48,-4.2 0.50665,-1.46666 0.97332,-2.93332 1.4,-4.4 0.45332,-1.49332 0.83998,-2.89332 1.16,-4.2 l 3.84,0"
         style="fill:{{color1}}"
         id="path3162" />
      <path
         d="m 337.56812,197.06451 c 0.87999,0 1.65333,-0.0133 2.32,-0.04 0.69333,-0.0533 1.26666,-0.13333 1.72,-0.24 l 0,-6.2 c -0.26668,-0.13333 -0.70668,-0.23999 -1.32,-0.32 -0.58667,-0.10666 -1.30667,-0.15999 -2.16,-0.16 -0.56001,1e-5 -1.16,0.04 -1.8,0.12 -0.61334,0.08 -1.18667,0.25334 -1.72,0.52 -0.50667,0.24 -0.93333,0.58667 -1.28,1.04 -0.34667,0.42667 -0.52,1 -0.51999,1.72 -1e-5,1.33333 0.42666,2.26667 1.27999,2.8 0.85333,0.50667 2.01333,0.76 3.48,0.76 m -0.31999,-18.64 c 1.49332,2e-5 2.74665,0.20002 3.75999,0.6 1.03999,0.37335 1.86666,0.92002 2.48001,1.64 0.63998,0.69335 1.09331,1.53335 1.35999,2.52 0.26665,0.96001 0.39999,2.02668 0.40001,3.2 l 0,13 c -0.32002,0.0533 -0.77336,0.13333 -1.36001,0.24 -0.56001,0.08 -1.20001,0.16 -1.92,0.24 -0.72001,0.08 -1.50667,0.14666 -2.36,0.2 -0.82667,0.08 -1.65334,0.12 -2.48,0.12 -1.17334,0 -2.25334,-0.12 -3.24,-0.36 -0.98667,-0.24 -1.84,-0.61334 -2.56,-1.12 -0.72,-0.53334 -1.28,-1.22667 -1.68,-2.08 -0.4,-0.85333 -0.6,-1.88 -0.59999,-3.08 -1e-5,-1.14666 0.22666,-2.13333 0.67999,-2.96 0.48,-0.82666 1.12,-1.49333 1.92,-2 0.8,-0.50666 1.73333,-0.87999 2.8,-1.12 1.06666,-0.23999 2.18666,-0.35999 3.36001,-0.36 0.37332,1e-5 0.75998,0.0267 1.15999,0.08 0.39999,0.0267 0.77333,0.08 1.12,0.16 0.37333,0.0533 0.69332,0.10668 0.96001,0.16 0.26665,0.0533 0.45331,0.0933 0.55999,0.12 l 0,-1.04 c -10e-6,-0.61332 -0.0667,-1.21332 -0.2,-1.8 -0.13334,-0.61332 -0.37334,-1.14665 -0.71999,-1.6 -0.34668,-0.47999 -0.82668,-0.85332 -1.44,-1.12 -0.58668,-0.29332 -1.36002,-0.43999 -2.32,-0.44 -1.22668,1e-5 -2.30668,0.0934 -3.24,0.28 -0.90668,0.16001 -1.58668,0.33335 -2.04001,0.52 l -0.44,-3.08 c 0.48,-0.21332 1.28,-0.41332 2.4,-0.6 1.12,-0.21332 2.33333,-0.31998 3.64001,-0.32"
         style="fill:{{color1}}"
         id="path3164" />
      <path
         d="m 355.7075,179.54451 c -10e-6,2.24001 -0.08,4.28001 -0.24,6.12 -0.16001,1.81334 -0.36001,3.62667 -0.6,5.44 l -2.32,0 c -0.24,-1.81333 -0.44,-3.62666 -0.6,-5.44 -0.16,-1.83999 -0.24,-3.87999 -0.24,-6.12 l 0,-7.52 4,0 0,7.52 m 0.68,18.04 c -10e-6,0.72 -0.24001,1.34666 -0.72,1.88 -0.48001,0.53333 -1.13334,0.8 -1.96,0.8 -0.82667,0 -1.48,-0.26667 -1.96,-0.8 -0.48,-0.53334 -0.72,-1.16 -0.72,-1.88 0,-0.72 0.24,-1.34667 0.72,-1.88 0.48,-0.53333 1.13333,-0.8 1.96,-0.8 0.82666,0 1.47999,0.26667 1.96,0.8 0.47999,0.53333 0.71999,1.16 0.72,1.88"
         style="fill:{{color1}}"
         id="path3166" />
    </g>
    <g
       transform="matrix(0.83844801,0,0,0.75759956,-142.8247,-145.60928)"
       style="font-size:40px;font-style:normal;font-variant:normal;font-weight:normal;font-stretch:normal;line-height:125%;letter-spacing:0px;word-spacing:0px;fill:{{color2}};fill-opacity:1;stroke:none;font-family:Ubuntu;-inkscape-font-specification:Ubuntu"
       id="flowRoot2995-8-8-5-6-2-6-4-7-5-6-2-8-1-3-8-0-8-1-7-8-4-3-1-3-00-1">
      <path
         d="m 194.27875,189.34451 c -2e-5,1.65334 -0.24002,3.14667 -0.72,4.48 -0.48002,1.33333 -1.16002,2.48 -2.04,3.44 -0.85335,0.96 -1.88002,1.70666 -3.08,2.24 -1.20001,0.50666 -2.50668,0.76 -3.92,0.76 -1.41334,0 -2.72001,-0.25334 -3.92,-0.76 -1.20001,-0.53334 -2.24001,-1.28 -3.12,-2.24 -0.85334,-0.96 -1.52,-2.10667 -2,-3.44 -0.48,-1.33333 -0.72,-2.82666 -0.72,-4.48 0,-1.62666 0.24,-3.10666 0.72,-4.44 0.48,-1.35999 1.14666,-2.51999 2,-3.48 0.87999,-0.95998 1.91999,-1.69332 3.12,-2.2 1.19999,-0.53332 2.50666,-0.79998 3.92,-0.8 1.41332,2e-5 2.71999,0.26668 3.92,0.8 1.19998,0.50668 2.22665,1.24002 3.08,2.2 0.87998,0.96001 1.55998,2.12001 2.04,3.48 0.47998,1.33334 0.71998,2.81334 0.72,4.44 m -3.88,0 c -2e-5,-2.34666 -0.53335,-4.19999 -1.6,-5.56 -1.04002,-1.38665 -2.46668,-2.07999 -4.28,-2.08 -1.81334,1e-5 -3.25334,0.69335 -4.32,2.08 -1.04001,1.36001 -1.56001,3.21334 -1.56,5.56 -10e-6,2.34667 0.51999,4.21334 1.56,5.6 1.06666,1.36 2.50666,2.04 4.32,2.04 1.81332,0 3.23998,-0.68 4.28,-2.04 1.06665,-1.38666 1.59998,-3.25333 1.6,-5.6"
         style="fill:{{color2}}"
         id="path3137" />
      <path
         d="m 213.9525,189.38451 c -2e-5,-2.42666 -0.60002,-4.29332 -1.8,-5.6 -1.20001,-1.30665 -2.80001,-1.95999 -4.8,-1.96 -1.12001,1e-5 -2.00001,0.04 -2.64,0.12 -0.61334,0.08 -1.10667,0.17335 -1.48,0.28 l 0,13.12 c 0.45333,0.37333 1.10666,0.73333 1.96,1.08 0.85332,0.34667 1.78666,0.52 2.8,0.52 1.06665,0 1.97332,-0.18667 2.72,-0.56 0.77332,-0.4 1.39998,-0.93333 1.88,-1.6 0.47998,-0.69333 0.82665,-1.49333 1.04,-2.4 0.21332,-0.93333 0.31998,-1.93333 0.32,-3 m 3.88,0 c -2e-5,1.57334 -0.21335,3.02667 -0.64,4.36 -0.40002,1.33333 -1.00002,2.48 -1.8,3.44 -0.80002,0.96 -1.78668,1.70666 -2.96,2.24 -1.14668,0.53333 -2.46668,0.8 -3.96,0.8 -1.20001,0 -2.26668,-0.16 -3.2,-0.48 -0.90667,-0.32 -1.58667,-0.62667 -2.04,-0.92 l 0,8.32 -3.72,0 0,-27.56 c 0.88,-0.21332 1.97333,-0.43998 3.28,-0.68 1.33333,-0.26665 2.86666,-0.39998 4.6,-0.4 1.59999,2e-5 3.03999,0.25335 4.32,0.76 1.27998,0.50668 2.37332,1.22668 3.28,2.16 0.90665,0.93335 1.59998,2.08001 2.08,3.44 0.50665,1.33334 0.75998,2.84001 0.76,4.52"
         style="fill:{{color2}}"
         id="path3139" />
      <path
         d="m 221.94625,189.38451 c 0,-1.83999 0.26666,-3.43999 0.8,-4.8 0.53333,-1.38665 1.24,-2.53332 2.12,-3.44 0.87999,-0.90665 1.89333,-1.58665 3.04,-2.04 1.14666,-0.45332 2.31999,-0.67998 3.52,-0.68 2.79999,2e-5 4.94665,0.88002 6.44,2.64 1.49331,1.73335 2.23998,4.38668 2.24,7.96 -2e-5,0.16001 -2e-5,0.37334 0,0.64 -2e-5,0.24001 -0.0134,0.46667 -0.04,0.68 l -14.24,0 c 0.15999,2.16 0.78666,3.8 1.88,4.92 1.09332,1.12 2.79999,1.68 5.12,1.68 1.30665,0 2.39998,-0.10667 3.28,-0.32 0.90665,-0.24 1.58665,-0.46667 2.04,-0.68 l 0.52,3.12 c -0.45335,0.24 -1.25335,0.49333 -2.4,0.76 -1.12002,0.26666 -2.40001,0.4 -3.84,0.4 -1.81334,0 -3.38668,-0.26667 -4.72,-0.8 -1.30667,-0.56 -2.38667,-1.32 -3.24,-2.28 -0.85334,-0.96 -1.49334,-2.09333 -1.92,-3.4 -0.4,-1.33333 -0.6,-2.78666 -0.6,-4.36 m 14.28,-2.04 c 0.0267,-1.67999 -0.40002,-3.05332 -1.28,-4.12 -0.85335,-1.09332 -2.04001,-1.63999 -3.56,-1.64 -0.85334,1e-5 -1.61334,0.17335 -2.28,0.52 -0.64001,0.32001 -1.18667,0.74668 -1.64,1.28 -0.45334,0.53335 -0.81334,1.14668 -1.08,1.84 -0.24001,0.69334 -0.40001,1.40001 -0.48,2.12 l 10.32,0"
         style="fill:{{color2}}"
         id="path3141" />
      <path
         d="m 245.45,179.54451 c 0.85333,-0.21332 1.98666,-0.43998 3.4,-0.68 1.41333,-0.23998 3.03999,-0.35998 4.88,-0.36 1.65332,2e-5 3.02665,0.24002 4.12,0.72 1.09332,0.45335 1.95998,1.10668 2.6,1.96 0.66665,0.82668 1.13331,1.82668 1.4,3 0.26665,1.17334 0.39998,2.46668 0.4,3.88 l 0,11.68 -3.72,0 0,-10.88 c -2e-5,-1.27999 -0.0933,-2.37332 -0.28,-3.28 -0.16002,-0.90666 -0.44002,-1.63999 -0.84,-2.2 -0.40001,-0.55999 -0.93335,-0.95999 -1.6,-1.2 -0.66668,-0.26665 -1.49335,-0.39999 -2.48,-0.4 -0.40001,10e-6 -0.81334,0.0133 -1.24,0.04 -0.42668,0.0267 -0.84001,0.0667 -1.24,0.12 -0.37334,0.0267 -0.72001,0.0667 -1.04,0.12 -0.29334,0.0533 -0.50667,0.0933 -0.64,0.12 l 0,17.56 -3.72,0 0,-20.2"
         style="fill:{{color2}}"
         id="path3143" />
    </g>
  </g>
</svg>
