<?xml version="1.0" encoding="UTF-8" standalone="no"?>
<!-- Created with Inkscape (http://www.inkscape.org/) -->
<svg id="svg2" xmlns:rdf="http://www.w3.org/1999/02/22-rdf-syntax-ns#" xmlns="http://www.w3.org/2000/svg" height="297mm" width="210mm" version="1.1" xmlns:cc="http://creativecommons.org/ns#" xmlns:dc="http://purl.org/dc/elements/1.1/">
 <metadata id="metadata7">
  <rdf:RDF>
   <cc:Work rdf:about="">
    <dc:format>image/svg+xml</dc:format>
    <dc:type rdf:resource="http://purl.org/dc/dcmitype/StillImage"/>
    <dc:title/>
   </cc:Work>
  </rdf:RDF>
 </metadata>
 <g id="layer1">
  <g id="g2993" transform="matrix(1.25,0,0,-1.25,52.169375,811.74153)">
   <g id="g2995" transform="scale(0.1,0.1)">
    <path id="path3139" d="m3037.3,3507.9c-14.834,78.116-7.1114,70.831-66.198,124.36,84.032-11.228,381.6-23.012,518.78,19.111,114.37,35.118,120.01,135.82,121.14,195.53,2.4752,131.33-157.46,179.41-157.46,179.41l-1155.1-4.1045s-67.33,107.43-104.6,132.19c-37.272,24.767-74.126,35.822-111.58,29.372-37.46-6.4446-206.67-79.358-206.67-79.358s-218.95-117.51-287.91-333.4c-37.214-116.49-41.636-299.61-32.456-447.63,3.0709-49.466,21.607-192.04,103.28-321.07,81.671-129.05,153.8-207.01,229.34-252.74,75.528-45.71,274.98-57.363,446.47-57.606,171.51-0.245,520.88,3.524,520.88,3.524s110.07,68.777,110.22,210.61c-36.891,115.2-43.599,97.501-89.046,141.43,30.842,2.9708,64.369,7.2549,85.465,29.257,30.703,32.022,38.274,68.199,40.495,129.38-7.3927,50.226-41.624,119.74-85.65,124.1,0,0,124.59,21.009,120.65,177.64zm-225.01-216.12s64.321,8.748,84.475-18.392c22.517-28.71,31.313-71.173,31.313-71.173s3.344-80.882-44.063-92.904c-47.393-12.019-459.7-4.32-459.7-4.32l-112.18,0.2948s-60.716,13.824-66.435,79.469c-5.7157,65.632,28.577,111.19,96.092,114.42,67.526,3.2147,470.5-7.3948,470.5-7.3948zm-431.83,651.32,1036.4-7.4964s90.998-5.8264,97.435-82.971c6.4203-77.134-16.63-134.67-81.328-134.18-64.711,0.4855-786.8,5.9063-786.8,5.9063l-121.69-4.9155s14.126-35.946-13.949-104.94c35.574,6.568,84.905-1.824,142.01-4.0213,63.875-2.4632,188.97-11.441,188.97-11.441s106.66-15.6,109.61-95.022c2.9342-79.416-77.74-117.29-118.96-117.08-18.669,0.091-306.6-12.101-482,14.909-44.926,6.9182-94.159,11.791-132.36,47.454-13.855,12.934-30.155,31.217-39.045,47.903-8.8573,16.625-6.3884,37.782,8.0599,52.933-20.97,24.378-24.848,29.654-49.653,58.412-18.877-12.336-40.878-65.127-33.773-98.885,7.7744-50.531,36.302-83.463,66.182-105.88,31.176-23.394,55.268-20.149,90.174-40.057-15.493-29.354-117.44-39.969-112.73-167.05,16.385-205.19,168.98-184.18,168.98-184.18-26.506-34.014-70.938-85.128-63.706-141.94,7.2323-56.811,47.728-106.89,86.258-103.66,37.799,0.078,101.48,2.2719,101.48,2.2719-41.022-3.8745-97.473,62.162-111.34,99.345-14.338,38.45,32.29,88.449,63.45,118.22l410.89,7.4333s66.971-9.8271,71.99-85.321c5.0055-75.497-33.427-134.92-138.51-132.26-67.181,1.7043-17.776-0.1302-227.16-6.1037-209.39-5.9736-237.46-1.4275-331.95,12.387,0,0-425.25,18.602-508.86,420.3-83.617,401.7-30.635,671.91,237.96,808.4,140.13,71.206,159.61,70.757,185.17,61.266,25.567-9.497,69.407-28.939,143.93-118.13,74.522-89.201,171.7-208.74,171.7-208.74s69.316-85.742,1.1314-150.09c-68.171-64.344-119.56-17.699-141.24,6.7008-21.681,24.409-227.33,272.9-227.33,272.9s-52.552,45.222-69.596,9.0622c-17.053-36.154-25.783-42.54,25.187-106.39,50.973-63.864,198.36-236.47,198.36-236.47s127.08-141.91,256.08-13.334c129,128.57,65.028,250.74,39.228,280.39-25.8,29.642-127.06,134.42-127.06,134.42l18.398-0.063" fill-rule="evenodd" fill="#eb1c26"/>
   </g>
  </g>
 </g>
</svg>
