<?xml version="1.0" encoding="UTF-8" standalone="no"?>
<!-- Created with Inkscape (http://www.inkscape.org/) -->

<svg
   xmlns:dc="http://purl.org/dc/elements/1.1/"
   xmlns:cc="http://creativecommons.org/ns#"
   xmlns:rdf="http://www.w3.org/1999/02/22-rdf-syntax-ns#"
   xmlns:svg="http://www.w3.org/2000/svg"
   xmlns="http://www.w3.org/2000/svg"
   xmlns:sodipodi="http://sodipodi.sourceforge.net/DTD/sodipodi-0.dtd"
   xmlns:inkscape="http://www.inkscape.org/namespaces/inkscape"
   id="svg2"
   height="258"
   width="258"
   version="1.1"
   inkscape:version="0.48.4 r9939"
   sodipodi:docname="hand_thumbdown.svg">
  <defs
     id="defs10" />
  <sodipodi:namedview
     pagecolor="#ffffff"
     bordercolor="#666666"
     borderopacity="1"
     objecttolerance="10"
     gridtolerance="10"
     guidetolerance="10"
     inkscape:pageopacity="0"
     inkscape:pageshadow="2"
     inkscape:window-width="1325"
     inkscape:window-height="750"
     id="namedview8"
     showgrid="false"
     inkscape:zoom="0.86224571"
     inkscape:cx="429.83281"
     inkscape:cy="35.486902"
     inkscape:window-x="41"
     inkscape:window-y="18"
     inkscape:window-maximized="1"
     inkscape:current-layer="svg2" />
  <metadata
     id="metadata7">
    <rdf:RDF>
      <cc:Work
         rdf:about="">
        <dc:format>image/svg+xml</dc:format>
        <dc:type
           rdf:resource="http://purl.org/dc/dcmitype/StillImage" />
        <dc:title />
      </cc:Work>
    </rdf:RDF>
  </metadata>
  <path
     id="path3139-1"
     d="m 221.60882,104.97008 c -1.33366,10.62676 -4.71787,15.15497 -14.37727,19.07764 9.53066,9.34597 7.95127,15.83378 8.09252,23.29752 -4.45619,18.1319 -7.18819,19.95647 -19.6825,23.34796 -9.34194,1.10177 -31.27927,1.85343 -51.92596,-1.23272 -10.75876,-1.60817 -23.94432,-6.34136 -28.88807,-8.16522 -4.9451,1.79976 -5.15874,1.92339 -6.99492,2.95689 -1.83617,1.0335 -0.0283,5.00631 -0.0283,5.00631 0,0 6.85702,15.4162 10.67079,28.34042 3.81377,12.92422 5.89392,23.09278 -0.38976,42.08391 -6.28367,18.99114 -32.246243,20.74053 -39.596723,9.64061 -4.51434,-15.73338 -5.28284,-28.77974 -8.06702,-39.82632 -3.16041,-12.5393 -8.03808,-22.06186 -8.03808,-22.06186 0,0 -13.35442,-22.59001 -21.97442,-49.57629 -4.65175,-14.56128 -5.2045,-37.45129 -4.057,-55.953809 0.38387,-6.18326 2.70088,-24.00503 12.91,-40.13381 10.20888,-16.13127 19.225,-25.87628 28.6675,-31.59252 9.441,-5.7137696 34.372503,-7.1703996 55.808753,-7.2007596 21.43875,-0.0306 65.11,0.4405 65.11,0.4405 0,0 13.75875,8.5971196 13.7775,26.3262796 -4.61137,14.40002 -5.44987,12.18764 -11.13075,17.67877 3.85525,0.37135 8.04613,0.90685 10.68313,3.65713 3.83787,4.00274 4.78425,8.52487 5.06187,16.17252 -0.92409,6.27824 -5.203,14.9675 -10.70625,15.5125 0,0 15.57375,2.62614 15.08125,22.205039 z M 193.48257,77.955051 c 0,0 8.04013,1.09349 10.55938,-2.299 2.81462,-3.58877 3.91412,-8.89665 3.91412,-8.89665 0,0 0.418,-12.11026 -5.50787,-13.613 -5.92413,-1.50239 -57.4625,-0.54 -57.4625,-0.54 0,0 -10.07671,-0.16697 -14.0225,2.0369 -3.94579,2.20386 -7.5895,1.72799 -8.30438,9.93364 -0.71446,8.20401 3.57213,13.89876 12.0115,14.30251 8.44075,0.40184 58.8125,-0.92435 58.8125,-0.92435 z m -29.6787,84.139659 c 11.27134,0.50618 25.8172,-0.17823 33.15928,-3.08974 6.57127,-2.60587 5.46542,-7.20951 6.27005,-10.94328 2.68696,-15.48107 -8.18395,-18.18768 -30.516,-16.03423 -13.54258,0.12784 -30.05065,-0.12557 -43.59323,0.002 0,0 -12.2734,1.86817 -13.20181,12.45652 -0.92841,10.58861 16.40004,12.94916 16.40004,12.94916 14.4421,3.46329 16.28388,3.97704 31.48167,4.65957 z m -52.28852,-37.02009 c 0,0 -3.17608,-2.99234 -4.9251,-7.35405 -1.80153,-4.49263 -2.17119,-10.38879 -1.72056,-12.52985 0.9718,-6.316379 4.53775,-10.432889 8.27275,-13.235029 3.897,-2.92424 6.9085,-2.51861 11.27175,-5.00713 -1.93663,-3.66924 -14.68,-4.99613 -14.09125,-20.88126 2.04812,-25.64879 21.1225,-23.02254 21.1225,-23.02254 -3.31325,-4.25174 -8.86725,-10.64101 -7.96325,-17.74252 0.90403,-7.10138 5.966,-13.36125 10.78225,-12.9575 4.72487,0.01 12.68499,0.28399 12.68499,0.28399 -5.12775,-0.48433 -12.18412,7.77026 -13.91749,12.41814 -1.79225,4.80624 4.03624,13.05612 7.93124,16.7775 l 51.36125,0.92918 c 0,0 8.37138,-3.22839 8.99875,-12.66514 0.62569,-9.43715 -4.17837,-16.86503 -17.31375,-16.53253 -8.39762,0.21305 -2.222,-0.0163 -28.395,-0.76295 -26.17374,-0.7467 -29.68249,-0.17844 -41.49374,1.54836 0,0 -53.156253,2.32527 -63.607503,52.53756 -10.45213,50.212569 0.67988,76.521959 20.14812,115.695569 1.76436,1.9718 7.0391,13.40275 9.28283,22.82446 3.17492,13.3319 3.71997,26.4619 9.40727,36.12538 6.02291,10.2337 16.219683,2.53473 17.170353,0.63496 1.86421,-3.72529 7.70546,-14.91093 5.2612,-33.05871 -5.07909,-24.31852 -18.999503,-48.77686 -18.009653,-49.14441 2.20595,-1.56597 12.485883,-3.2445 16.385483,-4.7613 -2.48237,-3.10342 -2.64219,-4.44398 -2.8057,-11.1693 -0.0921,-7.35686 2.76521,-11.1043 10.99952,-15.47414 -7.85287,-4.64084 -6.83726,-3.47674 -6.83726,-3.47674 z m 40.02726,-4.99031 c 10.63385,-0.40602 36.35529,2.96759 48.6422,-3.14972 0,0 10.28251,-2.52186 10.65126,-12.44962 0.36678,-9.927009 -9.7175,-14.661269 -14.87,-14.635019 -2.33362,0.0114 -38.325,-1.51262 -60.25,1.86363 -5.61575,0.86476 -11.76987,1.47388 -16.545,5.93176 -1.73187,1.61675 -3.76937,3.902109 -4.88062,5.987879 -1.10716,2.07811 -5.24666,12.94501 9.09496,16.72597"
     inkscape:connector-curvature="0"
     style="fill:#eb1c26;fill-rule:evenodd"
     sodipodi:nodetypes="ccccsczczzcscccccccccsccccccccczcccccsccczcccscccccscccccccscccsssccccccccccscsc" />
</svg>
